<?xml version="1.0" encoding="UTF-8"?>
<svg id="Layer_1" data-name="Layer 1" xmlns="http://www.w3.org/2000/svg" viewBox="0 0 361.28 768.16">
  <defs>
    <style>
      .cls-1 {
        fill: #a2845e;
        stroke: #fff;
        stroke-miterlimit: 10;
        stroke-width: .5px;
      }
    </style>
  </defs>
  <path class="cls-1" d="m206.34,767.2c-16.4-102.64-90.4-161.07-144.67-231.48C15.1,475.31-14.16,411.56,7.55,336.06c9.95-34.62,33.63-65.33,51.27-97.7,6.52-11.96,13.75-23.53,20.37-35.43,13.8-24.81,27.36-49.76,41.12-74.6,10.31-18.62,22.05-36.58,30.86-55.89,12.05-26.43,24.13-52.32,45.93-71.79-5.21,34.52-13.47,67.21-14.37,100.11-1.56,57.37,35.35,97.54,69.4,138.37,23.87,28.62,48.12,57.07,69.82,87.31,42.38,59.08,47.97,124.09,27.94,193.41-3.13-1.61-5.47-2.11-5.62-2.99-14.1-83-76.26-136.02-123.53-198.31-17.28-22.77-35.95-44.65-51.38-68.62-24.2-37.58-31.46-80.16-31.56-125.05-24.64,33.24-30.8,70.37-24.84,110.33,7.59,50.8,40.36,87.04,71.29,124.63,24.77,30.11,49.46,60.48,71.63,92.49,39.63,57.22,47.68,134.02,20.57,190.61-2.57-7.39-5.09-12.31-5.96-17.51-9.83-58.92-50.48-99.53-85.16-143.63-18.22-23.17-36.83-46.05-55.84-68.56-41.31-48.9-63.69-104.43-59.42-170.66-40.46,48.87-36.85,136.01,7.33,191.71,30.17,38.03,60.53,75.94,92.01,112.88,48.82,57.29,60.86,122.81,46.46,194.82-1.26,6.3-4.53,12.2-9.52,25.2Z"/>
</svg>